<svg xmlns="http://www.w3.org/2000/svg" width="22.83" height="14.528" viewBox="0 0 22.83 14.528"><path d="M17.585,15.8a12.439,12.439,0,0,0-4.67,1.038A12.241,12.241,0,0,0,8.245,15.8C5.993,15.8,1.5,16.923,1.5,19.175v2.854H24.33V19.175C24.33,16.923,19.837,15.8,17.585,15.8Zm-4.151,4.67H3.057v-1.3c0-.56,2.657-1.816,5.189-1.816s5.189,1.256,5.189,1.816Zm9.34,0H14.991v-1.3a1.888,1.888,0,0,0-.54-1.266,10.012,10.012,0,0,1,3.134-.55c2.532,0,5.189,1.256,5.189,1.816ZM8.245,14.764a3.632,3.632,0,1,0-3.632-3.632A3.636,3.636,0,0,0,8.245,14.764Zm0-5.708A2.075,2.075,0,1,1,6.17,11.132,2.082,2.082,0,0,1,8.245,9.057Zm9.34,5.708a3.632,3.632,0,1,0-3.632-3.632A3.636,3.636,0,0,0,17.585,14.764Zm0-5.708a2.075,2.075,0,1,1-2.075,2.075A2.082,2.082,0,0,1,17.585,9.057Z" transform="translate(-1.5 -7.5)" fill="#89d1e2"/></svg>