<svg xmlns="http://www.w3.org/2000/svg" width="27.341" height="26.83" viewBox="0 0 27.341 26.83"><g id="Group_2792" data-name="Group 2792" transform="translate(-1550.946 -43.736)"><path id="Icon_material-notifications-active" fill="none" stroke="#fff" stroke-width="2" d="M10.073,5.751,8.262,3.94a13.2,13.2,0,0,0-5.217,9.94H5.577A10.694,10.694,0,0,1,10.073,5.751ZM25.761,13.88h2.532a13.281,13.281,0,0,0-5.217-9.94l-1.8,1.811a10.757,10.757,0,0,1,4.482,8.129Zm-2.494.633c0-3.887-2.077-7.142-5.7-8V5.649a1.9,1.9,0,1,0-3.8,0V6.51c-3.634.861-5.7,4.1-5.7,8v6.331L5.539,23.376v1.266H25.8V23.376l-2.532-2.532Zm-7.6,13.928a2.218,2.218,0,0,0,.506-.051A2.569,2.569,0,0,0,18,26.9a2.542,2.542,0,0,0,.19-.988H13.124A2.551,2.551,0,0,0,15.669,28.441Z" data-name="Icon material-notifications-active" transform="translate(1548.946 41.125)"/></g></svg>