<svg xmlns="http://www.w3.org/2000/svg" width="26.244" height="28.509" viewBox="0 0 26.244 28.509"><g transform="translate(-26.966 -309.331)"><path d="M27.33,20.757V10.611a2.537,2.537,0,0,0-1.268-2.194L17.184,3.343a2.537,2.537,0,0,0-2.537,0L5.768,8.416A2.537,2.537,0,0,0,4.5,10.611V20.757a2.537,2.537,0,0,0,1.268,2.194l8.878,5.073a2.537,2.537,0,0,0,2.537,0l8.878-5.073a2.537,2.537,0,0,0,1.268-2.194Z" transform="translate(24.173 307.871)" fill="none" stroke="#e59e92" stroke-linecap="round" stroke-linejoin="round" stroke-width="3"/><path d="M4.905,10.44l11.073,6.405L27.05,10.44" transform="translate(24.111 306.722)" fill="none" stroke="#e59e92" stroke-linecap="round" stroke-linejoin="round" stroke-width="3"/><path d="M18,30.785V18" transform="translate(22.089 305.555)" fill="none" stroke="#e59e92" stroke-linecap="round" stroke-linejoin="round" stroke-width="3"/></g></svg>