<svg xmlns="http://www.w3.org/2000/svg" xmlns:xlink="http://www.w3.org/1999/xlink" width="32.814" height="32.814" viewBox="0 0 32.814 32.814"><defs><clipPath id="clip-path"><rect width="32.814" height="32.814" fill="none"/></clipPath></defs><g id="Group_2798" data-name="Group 2798" transform="translate(-23.6 -565.5)"><path id="Path_9" fill="none" stroke="#fe9699" stroke-linecap="round" stroke-linejoin="round" stroke-width="3" d="M21.631,17.566A4.066,4.066,0,1,1,17.566,13.5,4.066,4.066,0,0,1,21.631,17.566Z" data-name="Path 9" transform="translate(22.441 564.342)"/><g id="Repeat_Grid_1" clip-path="url(#clip-path)" data-name="Repeat Grid 1" transform="translate(23.6 565.5)"><g transform="translate(-23.6 -565.5)"><path id="Path_10" fill="none" stroke="#fe9699" stroke-linecap="round" stroke-linejoin="round" stroke-width="3" d="M26.436,20.473a2.236,2.236,0,0,0,.447,2.466l.081.081a2.712,2.712,0,1,1-3.835,3.835l-.081-.081a2.254,2.254,0,0,0-3.822,1.6v.23a2.71,2.71,0,0,1-5.421,0v-.122a2.236,2.236,0,0,0-1.464-2.046,2.236,2.236,0,0,0-2.466.447l-.081.081a2.712,2.712,0,1,1-3.835-3.835l.081-.081a2.254,2.254,0,0,0-1.6-3.822H4.21a2.71,2.71,0,0,1,0-5.421h.122a2.236,2.236,0,0,0,2.046-1.464,2.236,2.236,0,0,0-.447-2.466L5.85,9.794A2.712,2.712,0,1,1,9.685,5.959l.081.081a2.236,2.236,0,0,0,2.466.447h.108A2.236,2.236,0,0,0,13.7,4.441V4.21a2.71,2.71,0,0,1,5.421,0v.122a2.254,2.254,0,0,0,3.822,1.6l.081-.081a2.712,2.712,0,1,1,3.835,3.835l-.081.081a2.236,2.236,0,0,0-.447,2.466v.108A2.236,2.236,0,0,0,28.373,13.7h.23a2.71,2.71,0,0,1,0,5.421h-.122a2.236,2.236,0,0,0-2.046,1.355Z" data-name="Path 10" transform="translate(23.6 565.5)"/></g></g></g></svg>